<?xml version="1.0" encoding="UTF-8" standalone="no"?>
<svg
   xmlns:dc="http://purl.org/dc/elements/1.1/"
   xmlns:cc="http://creativecommons.org/ns#"
   xmlns:rdf="http://www.w3.org/1999/02/22-rdf-syntax-ns#"
   xmlns:svg="http://www.w3.org/2000/svg"
   xmlns="http://www.w3.org/2000/svg"
   xmlns:sodipodi="http://sodipodi.sourceforge.net/DTD/sodipodi-0.dtd"
   xmlns:inkscape="http://www.inkscape.org/namespaces/inkscape"
   width="210mm"
   height="297mm"
   viewBox="0 0 210 297"
   version="1.1"
   id="svg1012"
   inkscape:version="1.0.1 (c497b03c, 2020-09-10)"
   sodipodi:docname="square.svg">
  <defs
     id="defs1006">
    <inkscape:path-effect
       effect="spiro"
       id="path-effect2702"
       is_visible="true"
       lpeversion="1" />
    <inkscape:path-effect
       effect="spiro"
       id="path-effect2698"
       is_visible="true"
       lpeversion="1" />
    <inkscape:path-effect
       effect="spiro"
       id="path-effect2694"
       is_visible="true"
       lpeversion="1" />
    <inkscape:path-effect
       effect="powerstroke"
       id="path-effect2690"
       is_visible="true"
       lpeversion="1"
       offset_points="0,0.1322915"
       sort_points="true"
       interpolator_type="CubicBezierJohan"
       interpolator_beta="0.2"
       start_linecap_type="zerowidth"
       linejoin_type="extrp_arc"
       miter_limit="4"
       scale_width="1"
       end_linecap_type="zerowidth" />
    <inkscape:path-effect
       effect="simplify"
       id="path-effect2686"
       is_visible="true"
       lpeversion="1"
       steps="1"
       threshold="0.00139665"
       smooth_angles="360"
       helper_size="0"
       simplify_individual_paths="false"
       simplify_just_coalesce="false" />
    <inkscape:path-effect
       effect="powerstroke"
       id="path-effect2682"
       is_visible="true"
       lpeversion="1"
       offset_points="0,0.1322915"
       sort_points="true"
       interpolator_type="CubicBezierJohan"
       interpolator_beta="0.2"
       start_linecap_type="zerowidth"
       linejoin_type="extrp_arc"
       miter_limit="4"
       scale_width="1"
       end_linecap_type="zerowidth" />
    <inkscape:path-effect
       effect="simplify"
       id="path-effect2678"
       is_visible="true"
       lpeversion="1"
       steps="1"
       threshold="0.00139665"
       smooth_angles="360"
       helper_size="0"
       simplify_individual_paths="false"
       simplify_just_coalesce="false" />
    <inkscape:path-effect
       effect="spiro"
       id="path-effect1770"
       is_visible="true"
       lpeversion="1" />
    <inkscape:path-effect
       effect="spiro"
       id="path-effect1766"
       is_visible="true"
       lpeversion="1" />
    <inkscape:path-effect
       effect="spiro"
       id="path-effect1744"
       is_visible="true"
       lpeversion="1" />
    <inkscape:path-effect
       effect="spiro"
       id="path-effect1725"
       is_visible="true"
       lpeversion="1" />
    <inkscape:path-effect
       effect="spiro"
       id="path-effect1703"
       is_visible="true"
       lpeversion="1" />
    <inkscape:path-effect
       effect="spiro"
       id="path-effect1695"
       is_visible="true"
       lpeversion="1" />
    <inkscape:path-effect
       effect="spiro"
       id="path-effect1689"
       is_visible="true"
       lpeversion="1" />
    <inkscape:path-effect
       effect="spiro"
       id="path-effect1683"
       is_visible="true"
       lpeversion="1" />
    <inkscape:path-effect
       effect="spiro"
       id="path-effect1679"
       is_visible="true"
       lpeversion="1" />
    <inkscape:path-effect
       effect="spiro"
       id="path-effect1673"
       is_visible="true"
       lpeversion="1" />
    <inkscape:path-effect
       effect="spiro"
       id="path-effect1669"
       is_visible="true"
       lpeversion="1" />
  </defs>
  <sodipodi:namedview
     id="base"
     pagecolor="#ffffff"
     bordercolor="#666666"
     borderopacity="1.0"
     inkscape:pageopacity="0.0"
     inkscape:pageshadow="2"
     inkscape:zoom="3.2694161"
     inkscape:cx="560.40556"
     inkscape:cy="530.07808"
     inkscape:document-units="mm"
     inkscape:current-layer="layer1"
     inkscape:document-rotation="0"
     showgrid="false"
     showguides="true"
     inkscape:guide-bbox="true"
     inkscape:snap-midpoints="true"
     inkscape:snap-intersection-paths="true"
     inkscape:object-nodes="true"
     inkscape:window-width="1440"
     inkscape:window-height="830"
     inkscape:window-x="0"
     inkscape:window-y="23"
     inkscape:window-maximized="1">
    <sodipodi:guide
       position="151.41072,158.125"
       orientation="0,-1"
       id="guide1581" />
    <sodipodi:guide
       position="151.41072,150.125"
       orientation="1,0"
       id="guide1583" />
    <sodipodi:guide
       position="143.41072,158.125"
       orientation="1,0"
       id="guide1585" />
    <sodipodi:guide
       position="143.41072,150.125"
       orientation="0,-1"
       id="guide1587" />
    <sodipodi:guide
       position="145.91072,155.125"
       orientation="1,0"
       id="guide1601" />
    <sodipodi:guide
       position="148.41072,156.625"
       orientation="0,-1"
       id="guide1611" />
    <sodipodi:guide
       position="143.41072,155.125"
       orientation="0,-1"
       id="guide1615" />
    <sodipodi:guide
       position="148.41072,154.125"
       orientation="0,-1"
       id="guide1617" />
    <sodipodi:guide
       position="145.91072,153.125"
       orientation="0,-1"
       id="guide1697" />
    <sodipodi:guide
       position="143.41072,150.625"
       orientation="0,-1"
       id="guide1717" />
    <sodipodi:guide
       position="148.41072,153.125"
       orientation="1,0"
       id="guide1721" />
  </sodipodi:namedview>
  <metadata
     id="metadata1009">
    <rdf:RDF>
      <cc:Work
         rdf:about="">
        <dc:format>image/svg+xml</dc:format>
        <dc:type
           rdf:resource="http://purl.org/dc/dcmitype/StillImage" />
        <dc:title></dc:title>
      </cc:Work>
    </rdf:RDF>
  </metadata>
  <g
     inkscape:label="Layer 1"
     inkscape:groupmode="layer"
     id="layer1">
    <g
       id="g3203"
       style="fill:#000000"
       transform="translate(-0.2735594,3.4800246)">
      <path
         id="rect3186"
         style="fill:#000000;stroke:#f08080;stroke-width:0;stroke-linecap:square;stroke-linejoin:round;stroke-miterlimit:4;stroke-dasharray:none;paint-order:markers stroke fill"
         d="m 573.29492,585.07031 c 0.65853,-1.39712 1.69451,-2.61671 2.98242,-3.4707 1.9386,-1.28546 4.304,-1.71421 6.4668,-2.57031 0.87043,-0.3447 1.72375,-0.76916 2.42383,-1.39063 0.70012,-0.62143 1.2383,-1.45989 1.35547,-2.38867 0.12699,-1.00713 -0.26864,-2.05567 -0.99805,-2.76172 -0.7293,-0.70617 -1.76739,-1.06784 -2.78125,-1.01758 -0.97538,0.0484 -1.92858,0.46964 -2.61914,1.16016 -0.69056,0.69052 -1.1117,1.64376 -1.16016,2.61914 h -5.66992 z"
         transform="scale(0.26458333)" />
      <path
         id="path3195"
         style="fill:#000000;stroke:#f08080;stroke-width:0;stroke-linecap:square;stroke-linejoin:round;stroke-miterlimit:4;stroke-dasharray:none;paint-order:markers stroke fill"
         d="m 592.19336,592.25586 h -18.89844 l 18.89844,0.002 z"
         transform="scale(0.26458333)" />
      <path
         id="path3193"
         style="fill:#000000;stroke:#f08080;stroke-width:0;stroke-linecap:square;stroke-linejoin:round;stroke-miterlimit:4;stroke-dasharray:none;paint-order:markers stroke fill"
         d="M 573.29492,562.01953 V 575.25 c 0.0571,-2.45186 1.08925,-4.86798 2.82031,-6.60547 1.73107,-1.73745 4.14397,-2.77761 6.59571,-2.84375 2.50741,-0.0677 5.03791,0.89344 6.82812,2.65039 1.79025,1.75692 2.80013,4.29486 2.65235,6.79883 -0.14098,2.3873 -1.30981,4.66266 -3.04102,6.3125 -2.22526,2.3534 -5.63965,2.5005 -7.68957,3.83133 -0.56916,0.56252 -0.63376,0.88345 -0.6073,1.19601 l 11.33789,-0.002 0.002,5.66797 h 11.33789 v -30.23633 z"
         transform="scale(0.26458333)"
         sodipodi:nodetypes="ccsssscccccccc" />
    </g>
    <rect
       style="fill:#dcdcdc;stroke:#f08080;stroke-width:0;stroke-linecap:round;stroke-linejoin:round;stroke-miterlimit:4;stroke-dasharray:none;paint-order:markers stroke fill"
       id="rect1840-7-0"
       width="7.9999299"
       height="0.49999961"
       x="143.4108"
       y="146.875" />
    <rect
       style="font-style:normal;font-weight:normal;font-size:1.90723px;line-height:1.25;font-family:sans-serif;fill:#000000;fill-opacity:1;stroke:none;stroke-width:0;paint-order:markers stroke fill"
       id="rect993"
       width="8"
       height="8"
       x="143.41072"
       y="138.875" />
    <rect
       style="fill:#696969;stroke-width:0;paint-order:markers stroke fill"
       id="rect1589"
       width="5"
       height="8"
       x="143.41072"
       y="138.875" />
    <rect
       style="fill:#dcdcdc;stroke-width:0;paint-order:markers stroke fill"
       id="rect1591"
       width="8"
       height="5"
       x="143.41072"
       y="141.875" />
    <rect
       style="fill:#c0c0c0;stroke-width:0;paint-order:markers stroke fill"
       id="rect1593"
       width="5"
       height="5"
       x="143.41072"
       y="140.375" />
    <rect
       style="fill:#c0c0c0;stroke-width:0;paint-order:markers stroke fill"
       id="rect1609"
       width="3"
       height="3"
       x="148.41072"
       y="138.875" />
    <path
       id="path1785"
       style="fill:#bc8f8f;stroke-width:0;paint-order:markers stroke fill"
       d="M 551.47266 530.55078 A 9.4488161 9.4488179 0 0 0 542.02539 540 L 547.69336 540 A 3.7795276 3.7795276 0 0 1 551.42188 536.2207 A 3.7795276 3.7795276 0 0 1 551.47266 536.2207 A 3.7795276 3.7795276 0 0 1 555.25391 540 A 3.7795276 3.7795276 0 0 1 551.47266 543.7793 L 551.36523 543.7793 A 9.4488161 9.4488179 0 0 0 551.10742 543.78711 A 9.4488161 9.4488179 0 0 0 550.84766 543.80078 A 9.4488161 9.4488179 0 0 0 550.58984 543.82031 A 9.4488161 9.4488179 0 0 0 550.33398 543.84766 A 9.4488161 9.4488179 0 0 0 550.07812 543.88281 A 9.4488161 9.4488179 0 0 0 549.82227 543.92578 A 9.4488161 9.4488179 0 0 0 549.56836 543.97266 A 9.4488161 9.4488179 0 0 0 549.31641 544.0293 A 9.4488161 9.4488179 0 0 0 549.06641 544.0918 A 9.4488161 9.4488179 0 0 0 548.81641 544.16016 A 9.4488161 9.4488179 0 0 0 548.57031 544.23633 A 9.4488161 9.4488179 0 0 0 548.32422 544.32031 A 9.4488161 9.4488179 0 0 0 548.08203 544.41016 A 9.4488161 9.4488179 0 0 0 547.8418 544.50586 A 9.4488161 9.4488179 0 0 0 547.60547 544.60742 A 9.4488161 9.4488179 0 0 0 547.37109 544.7168 A 9.4488161 9.4488179 0 0 0 547.13867 544.83203 A 9.4488161 9.4488179 0 0 0 546.91211 544.95312 A 9.4488161 9.4488179 0 0 0 546.6875 545.08203 A 9.4488161 9.4488179 0 0 0 546.46484 545.2168 A 9.4488161 9.4488179 0 0 0 546.24805 545.35547 A 9.4488161 9.4488179 0 0 0 546.03516 545.50195 A 9.4488161 9.4488179 0 0 0 545.82617 545.6543 A 9.4488161 9.4488179 0 0 0 545.62109 545.81055 A 9.4488161 9.4488179 0 0 0 545.41992 545.97266 A 9.4488161 9.4488179 0 0 0 545.22266 546.14258 A 9.4488161 9.4488179 0 0 0 545.03125 546.31641 A 9.4488161 9.4488179 0 0 0 544.8457 546.49414 A 9.4488161 9.4488179 0 0 0 544.66406 546.67773 A 9.4488161 9.4488179 0 0 0 544.48633 546.86719 A 9.4488161 9.4488179 0 0 0 544.31641 547.06055 A 9.4488161 9.4488179 0 0 0 544.15039 547.25781 A 9.4488161 9.4488179 0 0 0 543.98828 547.46094 A 9.4488161 9.4488179 0 0 0 543.83398 547.66797 A 9.4488161 9.4488179 0 0 0 543.68555 547.87891 A 9.4488161 9.4488179 0 0 0 543.54102 548.09375 A 9.4488161 9.4488179 0 0 0 543.4043 548.3125 A 9.4488161 9.4488179 0 0 0 543.27344 548.53516 A 9.4488161 9.4488179 0 0 0 543.14648 548.76172 A 9.4488161 9.4488179 0 0 0 543.02734 548.99023 A 9.4488161 9.4488179 0 0 0 542.91602 549.22266 A 9.4488161 9.4488179 0 0 0 542.80859 549.45898 A 9.4488161 9.4488179 0 0 0 542.70898 549.69727 A 9.4488161 9.4488179 0 0 0 542.61523 549.9375 A 9.4488161 9.4488179 0 0 0 542.5293 550.18164 A 9.4488161 9.4488179 0 0 0 542.44922 550.42773 A 9.4488161 9.4488179 0 0 0 542.37695 550.67578 A 9.4488161 9.4488179 0 0 0 542.31055 550.92578 A 9.4488161 9.4488179 0 0 0 542.25 551.17773 A 9.4488161 9.4488179 0 0 0 542.19727 551.42969 A 9.4488161 9.4488179 0 0 0 542.15234 551.68359 A 9.4488161 9.4488179 0 0 0 542.11328 551.93945 A 9.4488161 9.4488179 0 0 0 542.08203 552.19727 A 9.4488161 9.4488179 0 0 0 542.05664 552.45312 A 9.4488161 9.4488179 0 0 0 542.03906 552.71094 A 9.4488161 9.4488179 0 0 0 542.02734 552.9707 A 9.4488161 9.4488179 0 0 0 542.02539 553.22852 L 542.02539 555.11719 L 542.02539 557.00781 L 560.92188 557.00781 L 560.92188 555.11719 L 560.92188 553.22852 L 560.92188 551.33789 L 551.47266 551.33789 L 551.47266 551.33984 L 549.58398 551.33984 L 549.58398 551.33789 A 1.8893012 1.8895627 0 0 1 549.58789 551.22266 A 1.8893012 1.8895627 0 0 1 549.59766 551.10742 A 1.8893012 1.8895627 0 0 1 549.61523 550.99414 A 1.8893012 1.8895627 0 0 1 549.64062 550.88086 A 1.8893012 1.8895627 0 0 1 549.67188 550.76953 A 1.8893012 1.8895627 0 0 1 549.70898 550.66016 A 1.8893012 1.8895627 0 0 1 549.75391 550.55469 A 1.8893012 1.8895627 0 0 1 549.80469 550.45117 A 1.8893012 1.8895627 0 0 0 549.80469 550.44922 A 1.8893012 1.8895627 0 0 1 549.86328 550.34961 A 1.8893012 1.8895627 0 0 1 549.92578 550.25391 A 1.8893012 1.8895627 0 0 0 549.92578 550.25195 A 1.8893012 1.8895627 0 0 1 549.99609 550.16016 A 1.8893012 1.8895627 0 0 1 550.07031 550.07227 A 1.8893012 1.8895627 0 0 1 550.15039 549.99023 A 1.8893012 1.8895627 0 0 1 550.23633 549.91211 A 1.8893012 1.8895627 0 0 1 550.32422 549.83789 A 1.8893012 1.8895627 0 0 1 550.41797 549.77148 A 1.8893012 1.8895627 0 0 0 550.41992 549.76953 A 1.8893012 1.8895627 0 0 1 550.51758 549.70898 A 1.8893012 1.8895627 0 0 1 550.61719 549.6543 A 1.8893012 1.8895627 0 0 1 550.72266 549.60547 A 1.8893012 1.8895627 0 0 1 550.83008 549.5625 A 1.8893012 1.8895627 0 0 1 550.93945 549.52539 A 1.8893012 1.8895627 0 0 1 551.05078 549.49609 A 1.8893012 1.8895627 0 0 0 551.05273 549.49609 A 1.8893012 1.8895627 0 0 1 551.16602 549.47461 A 1.8893012 1.8895627 0 0 1 551.2793 549.45898 A 1.8893012 1.8895627 0 0 1 551.39453 549.45117 A 1.8893012 1.8895627 0 0 1 551.47266 549.44922 A 9.4488161 9.4488179 0 0 0 560.92188 540 A 9.4488161 9.4488179 0 0 0 551.47266 530.55078 z "
       transform="scale(0.26458333)" />
    <rect
       style="fill:#ffffff;stroke-width:0;paint-order:markers stroke fill"
       id="rect1621-8"
       width="1"
       height="1"
       x="144.91072"
       y="142.875" />
    <rect
       style="fill:#dcdcdc;stroke:#f08080;stroke-width:0;stroke-linecap:round;stroke-linejoin:round;stroke-miterlimit:4;stroke-dasharray:none;paint-order:markers stroke fill"
       id="rect1840-7-0-5"
       width="3.0000074"
       height="0.49999961"
       x="148.41072"
       y="146.875" />
    <rect
       style="fill:#ffffff;stroke:#f08080;stroke-width:0;stroke-linecap:round;stroke-linejoin:round;stroke-miterlimit:4;stroke-dasharray:none;paint-order:markers stroke fill"
       id="rect1840-7-0-5-2"
       width="7.9999299"
       height="0.49999961"
       x="143.4108"
       y="138.875" />
    <path
       id="path1785-1"
       style="fill:#000000;stroke-width:0;paint-order:markers stroke fill"
       d="m 515.61328,575.9043 v 13.12109 c 0.0586,-5.17599 4.27094,-9.34128 9.44727,-9.3418 l 0.004,-0.004 c 5.21875,-2.2e-4 9.44944,4.23047 9.44922,9.44922 2.2e-4,5.21875 -4.23047,9.44943 -9.44922,9.44921 -0.026,1.1e-4 -0.0521,7.7e-4 -0.0781,0.002 -0.0793,-5.2e-4 -0.15562,0.016 -0.22852,0.0234 -0.038,0.007 -0.0758,0.0145 -0.11328,0.0234 h -0.002 c -0.0374,0.009 -0.0745,0.0184 -0.11133,0.0293 -0.0368,0.0113 -0.0733,0.0236 -0.10937,0.0371 -0.0758,0.0251 -0.14502,0.0625 -0.2129,0.0918 -0.0337,0.0172 -0.067,0.0355 -0.0996,0.0547 -0.0332,0.0192 -0.0657,0.0394 -0.0977,0.0606 l -0.002,0.002 c -0.0319,0.0212 -0.0632,0.0433 -0.0937,0.0664 -0.03,0.0238 -0.0594,0.0486 -0.0879,0.0742 -0.0294,0.0252 -0.0581,0.0512 -0.0859,0.0781 -0.0275,0.0265 -0.0542,0.0539 -0.0801,0.082 -0.0257,0.0292 -0.0504,0.0591 -0.0742,0.0898 -0.0244,0.0299 -0.0478,0.0605 -0.0703,0.0918 v 0.002 c -0.0218,0.0313 -0.0426,0.0632 -0.0625,0.0957 -0.0205,0.0326 -0.0401,0.0658 -0.0586,0.0996 v 0.002 c -0.018,0.034 -0.0349,0.0685 -0.0508,0.10352 -0.016,0.0347 -0.031,0.0699 -0.0449,0.10547 -0.0141,0.0361 -0.0272,0.0725 -0.0391,0.10937 -0.0109,0.0368 -0.0207,0.0739 -0.0293,0.11133 -0.0103,0.0375 -0.0194,0.0752 -0.0273,0.11328 -0.007,0.0376 -0.0129,0.0754 -0.0176,0.11328 -0.005,0.0383 -0.009,0.0767 -0.0117,0.11524 -0.002,0.0384 -0.004,0.0768 -0.004,0.11523 v 0.002 h 1.88867 v -0.002 h 9.44922 v 1.89063 1.88867 1.89062 h 11.33984 V 575.9043 Z m 9.39649,9.44922 c -2.06734,0.0279 -3.72858,1.71177 -3.72852,3.77929 h -5.66797 v 13.22852 c -5.2e-4,-0.0859 1.3e-4,-0.17189 0.002,-0.25781 0.003,-0.0866 0.007,-0.17324 0.0117,-0.25977 0.005,-0.086 0.0118,-0.17197 0.0195,-0.25781 0.007,-0.0854 0.0158,-0.17069 0.0254,-0.25586 0.009,-0.0861 0.0196,-0.17202 0.0312,-0.25781 0.0112,-0.0855 0.0236,-0.17075 0.0371,-0.25586 0.0138,-0.0848 0.0288,-0.16948 0.0449,-0.25391 0.0164,-0.0842 0.034,-0.16821 0.0527,-0.25195 0.019,-0.0843 0.0392,-0.16825 0.0606,-0.25196 0.021,-0.0836 0.0431,-0.16697 0.0664,-0.25 0.023,-0.083 0.0471,-0.16569 0.0723,-0.24804 0.0256,-0.0824 0.0523,-0.16444 0.0801,-0.2461 0.0275,-0.0818 0.0562,-0.16316 0.0859,-0.24414 0.0302,-0.0805 0.0614,-0.16058 0.0938,-0.24023 0.0321,-0.0799 0.0653,-0.15931 0.0996,-0.23828 0.0347,-0.0793 0.0705,-0.15805 0.10743,-0.23633 0.036,-0.078 0.0732,-0.15546 0.11132,-0.23242 0.0387,-0.0767 0.0784,-0.15289 0.11915,-0.22852 0.0413,-0.0761 0.0836,-0.15163 0.12695,-0.22656 0.0426,-0.0748 0.0862,-0.14904 0.13086,-0.22266 0.0446,-0.0735 0.0901,-0.14646 0.13672,-0.21875 0.0472,-0.0723 0.0954,-0.14389 0.14453,-0.21484 0.0485,-0.071 0.098,-0.14131 0.14844,-0.21094 0.0505,-0.0697 0.10192,-0.13873 0.15429,-0.20703 0.0531,-0.0684 0.10714,-0.13617 0.16211,-0.20313 0.0544,-0.0665 0.10979,-0.13226 0.16602,-0.19726 0.0558,-0.0652 0.1124,-0.12968 0.16992,-0.19336 0.0584,-0.064 0.11762,-0.12712 0.17773,-0.18945 0.0597,-0.062 0.12026,-0.12323 0.18164,-0.1836 0.061,-0.0601 0.1229,-0.11933 0.18555,-0.17773 0.063,-0.0588 0.12682,-0.11676 0.19141,-0.17383 0.065,-0.0575 0.13073,-0.11419 0.19726,-0.16992 0.0663,-0.0549 0.13338,-0.10899 0.20117,-0.16211 0.0676,-0.053 0.13601,-0.1051 0.20508,-0.15625 0.069,-0.0517 0.13863,-0.10252 0.20899,-0.15234 0.0703,-0.0498 0.14126,-0.0986 0.21289,-0.14649 0.0716,-0.0472 0.1439,-0.0934 0.21679,-0.13867 0.0736,-0.0459 0.14782,-0.0909 0.22266,-0.13477 0.0743,-0.044 0.14915,-0.087 0.22461,-0.1289 0.075,-0.0414 0.15049,-0.0818 0.22656,-0.1211 0.0769,-0.0395 0.15442,-0.0779 0.23242,-0.11523 0.0776,-0.0375 0.15576,-0.074 0.23438,-0.10938 0.0783,-0.0349 0.1571,-0.0688 0.23633,-0.10156 0.0796,-0.033 0.15972,-0.0649 0.24023,-0.0957 0.0803,-0.031 0.16105,-0.061 0.24219,-0.0898 0.0816,-0.0291 0.16368,-0.0571 0.24609,-0.084 0.0817,-0.0265 0.16372,-0.0519 0.2461,-0.0762 0.083,-0.0239 0.16636,-0.0467 0.25,-0.0684 0.083,-0.022 0.16639,-0.0428 0.25,-0.0625 0.0837,-0.02 0.16771,-0.0389 0.25195,-0.0566 0.0844,-0.0168 0.16906,-0.0324 0.25391,-0.0469 0.0851,-0.0155 0.17038,-0.0298 0.25586,-0.043 0.0851,-0.0129 0.17042,-0.0246 0.25586,-0.0352 0.0852,-0.01 0.17046,-0.0181 0.25585,-0.0254 0.0859,-0.008 0.17179,-0.0142 0.25782,-0.0195 0.0865,-0.006 0.17311,-0.0116 0.25976,-0.0156 0.0859,-0.004 0.17184,-0.006 0.25781,-0.008 h 0.10743 c 2.08796,9.5e-4 3.78112,-1.69134 3.78125,-3.7793 -1.3e-4,-2.08796 -1.69329,-3.78024 -3.78125,-3.77929 -0.0169,-1.1e-4 -0.0339,-1.1e-4 -0.0508,0 z"
       transform="scale(0.26458333)"
       sodipodi:nodetypes="cccccsccccccccccccsccccccccscccccscccccccccccccccccccccccccccccccccsccscsccsssscscscccccccscsscccccccccccscsc" />
    <path
       id="path2706"
       style="fill:#ff7f50;stroke:#000000;stroke-width:0;stroke-linecap:square;stroke-linejoin:miter;stroke-miterlimit:4;stroke-dasharray:none;stroke-opacity:1"
       d="m 143.41084,147.375 c -0.22625,-0.48133 -0.27331,-1.04449 -0.12995,-1.55668 0.14335,-0.51219 0.47587,-0.96912 0.91915,-1.26305 0.51292,-0.34011 1.13848,-0.45382 1.71072,-0.68033 0.2303,-0.0912 0.45609,-0.2032 0.64132,-0.36763 0.18524,-0.16442 0.32789,-0.38657 0.35889,-0.63231 0.0336,-0.26647 -0.0715,-0.54399 -0.26449,-0.7308 -0.19296,-0.18684 -0.46747,-0.28244 -0.73572,-0.26914 -0.25807,0.0128 -0.50999,0.12456 -0.6927,0.30726 -0.18271,0.1827 -0.2945,0.43461 -0.30732,0.69268 l -1.49984,2e-5 c 0.0151,-0.64872 0.28796,-1.28796 0.74597,-1.74767 0.45801,-0.4597 1.09624,-0.73489 1.74493,-0.75239 0.66342,-0.0179 1.33295,0.23637 1.80661,0.70123 0.47367,0.46485 0.74131,1.13635 0.70221,1.79886 -0.0373,0.63164 -0.34672,1.23366 -0.80477,1.67018 -0.45806,0.43652 -1.05645,0.71248 -1.67822,0.82982 -0.10122,0.0191 -0.20556,0.035 -0.29566,0.0848 -0.0726,0.0401 -0.13321,0.10174 -0.17221,0.17494 -0.039,0.0732 -0.056,0.15784 -0.049,0.24054 l 2.99982,-5.6e-4 1.4e-4,1.50019 -5,-1.7e-4"
       sodipodi:nodetypes="cssscssssccsssssssscccc" />
    <rect
       style="fill:#ffffff;stroke:#f08080;stroke-width:0;stroke-linecap:square;stroke-linejoin:round;stroke-miterlimit:4;stroke-dasharray:none;paint-order:markers stroke fill"
       id="rect3169"
       width="1.5108129"
       height="9.3407564"
       x="141.89998"
       y="139.375" />
  </g>
</svg>
